<mxfile host="65bd71144e">
    <diagram id="BchvI7WIYb1rJNrYavdt" name="1(b)">
        <mxGraphModel dx="873" dy="510" grid="1" gridSize="10" guides="1" tooltips="1" connect="1" arrows="1" fold="1" page="1" pageScale="1" pageWidth="827" pageHeight="1169" math="0" shadow="0">
            <root>
                <mxCell id="0"/>
                <mxCell id="1" parent="0"/>
                <mxCell id="26" style="edgeStyle=none;html=1;entryX=0;entryY=0.5;entryDx=0;entryDy=0;endArrow=none;endFill=0;" edge="1" parent="1" source="9" target="8">
                    <mxGeometry relative="1" as="geometry"/>
                </mxCell>
                <mxCell id="9" value="系統管理者" style="shape=umlActor;verticalLabelPosition=bottom;verticalAlign=top;html=1;" vertex="1" parent="1">
                    <mxGeometry x="40" y="390" width="30" height="60" as="geometry"/>
                </mxCell>
                <mxCell id="20" style="edgeStyle=none;html=1;entryX=0;entryY=0.5;entryDx=0;entryDy=0;endArrow=none;endFill=0;" edge="1" parent="1" source="12" target="2">
                    <mxGeometry relative="1" as="geometry"/>
                </mxCell>
                <mxCell id="21" style="edgeStyle=none;html=1;entryX=0;entryY=0.5;entryDx=0;entryDy=0;endArrow=none;endFill=0;" edge="1" parent="1" source="12" target="4">
                    <mxGeometry relative="1" as="geometry"/>
                </mxCell>
                <mxCell id="25" style="edgeStyle=none;html=1;entryX=0;entryY=0.5;entryDx=0;entryDy=0;endArrow=none;endFill=0;" edge="1" parent="1" source="12" target="3">
                    <mxGeometry relative="1" as="geometry"/>
                </mxCell>
                <mxCell id="12" value="警衛" style="shape=umlActor;verticalLabelPosition=bottom;verticalAlign=top;html=1;" vertex="1" parent="1">
                    <mxGeometry x="40" y="100" width="30" height="60" as="geometry"/>
                </mxCell>
                <mxCell id="40" style="edgeStyle=none;html=1;entryX=0;entryY=0.5;entryDx=0;entryDy=0;endArrow=none;endFill=0;" edge="1" parent="1" source="13" target="35">
                    <mxGeometry relative="1" as="geometry"/>
                </mxCell>
                <mxCell id="41" style="edgeStyle=none;html=1;entryX=0;entryY=0.5;entryDx=0;entryDy=0;endArrow=none;endFill=0;" edge="1" parent="1" source="13" target="36">
                    <mxGeometry relative="1" as="geometry"/>
                </mxCell>
                <mxCell id="42" style="edgeStyle=none;html=1;entryX=0;entryY=0.5;entryDx=0;entryDy=0;endArrow=none;endFill=0;" edge="1" parent="1" source="13" target="37">
                    <mxGeometry relative="1" as="geometry"/>
                </mxCell>
                <mxCell id="13" value="手機綁定住戶" style="shape=umlActor;verticalLabelPosition=bottom;verticalAlign=top;html=1;" vertex="1" parent="1">
                    <mxGeometry x="40" y="760" width="30" height="60" as="geometry"/>
                </mxCell>
                <mxCell id="23" style="edgeStyle=none;html=1;entryX=0;entryY=0.5;entryDx=0;entryDy=0;endArrow=none;endFill=0;" edge="1" parent="1" source="14" target="6">
                    <mxGeometry relative="1" as="geometry"/>
                </mxCell>
                <mxCell id="24" style="edgeStyle=none;html=1;entryX=0;entryY=0.5;entryDx=0;entryDy=0;endArrow=none;endFill=0;" edge="1" parent="1" source="14" target="7">
                    <mxGeometry relative="1" as="geometry"/>
                </mxCell>
                <mxCell id="14" value="委員" style="shape=umlActor;verticalLabelPosition=bottom;verticalAlign=top;html=1;" vertex="1" parent="1">
                    <mxGeometry x="40" y="189" width="30" height="60" as="geometry"/>
                </mxCell>
                <mxCell id="27" style="edgeStyle=none;html=1;entryX=0;entryY=0.5;entryDx=0;entryDy=0;endArrow=none;endFill=0;" edge="1" parent="1" source="15" target="7">
                    <mxGeometry relative="1" as="geometry"/>
                </mxCell>
                <mxCell id="29" style="edgeStyle=none;html=1;entryX=0;entryY=0.5;entryDx=0;entryDy=0;endArrow=none;endFill=0;" edge="1" parent="1" source="15" target="6">
                    <mxGeometry relative="1" as="geometry"/>
                </mxCell>
                <mxCell id="15" value="主任委員" style="shape=umlActor;verticalLabelPosition=bottom;verticalAlign=top;html=1;" vertex="1" parent="1">
                    <mxGeometry x="40" y="284" width="30" height="60" as="geometry"/>
                </mxCell>
                <mxCell id="19" value="電腦部分" style="swimlane;whiteSpace=wrap;html=1;" vertex="1" parent="1">
                    <mxGeometry x="160" y="20" width="380" height="560" as="geometry"/>
                </mxCell>
                <mxCell id="2" value="大樓資訊案例" style="ellipse;whiteSpace=wrap;html=1;fontSize=16;" vertex="1" parent="19">
                    <mxGeometry x="70" y="40" width="140" height="70" as="geometry"/>
                </mxCell>
                <mxCell id="4" value="包裹信件登記案例" style="ellipse;whiteSpace=wrap;html=1;fontSize=16;" vertex="1" parent="19">
                    <mxGeometry x="70" y="126" width="140" height="70" as="geometry"/>
                </mxCell>
                <mxCell id="6" value="公告案例" style="ellipse;whiteSpace=wrap;html=1;fontSize=16;" vertex="1" parent="19">
                    <mxGeometry x="70" y="214" width="140" height="70" as="geometry"/>
                </mxCell>
                <mxCell id="3" value="手機綁定案例" style="ellipse;whiteSpace=wrap;html=1;fontSize=16;" vertex="1" parent="19">
                    <mxGeometry x="70" y="302" width="140" height="70" as="geometry"/>
                </mxCell>
                <mxCell id="7" value="論壇案例" style="ellipse;whiteSpace=wrap;html=1;fontSize=16;" vertex="1" parent="19">
                    <mxGeometry x="70" y="390" width="140" height="70" as="geometry"/>
                </mxCell>
                <mxCell id="8" value="社區案例" style="ellipse;whiteSpace=wrap;html=1;fontSize=16;" vertex="1" parent="19">
                    <mxGeometry x="70" y="480" width="140" height="70" as="geometry"/>
                </mxCell>
                <mxCell id="48" value="" style="edgeStyle=none;html=1;fontSize=16;endArrow=none;endFill=0;" edge="1" parent="19" source="47" target="4">
                    <mxGeometry relative="1" as="geometry"/>
                </mxCell>
                <mxCell id="47" value="推播案例" style="ellipse;whiteSpace=wrap;html=1;fontSize=16;" vertex="1" parent="19">
                    <mxGeometry x="227" y="126" width="140" height="70" as="geometry"/>
                </mxCell>
                <mxCell id="30" value="App部分" style="swimlane;whiteSpace=wrap;html=1;" vertex="1" parent="1">
                    <mxGeometry x="160" y="600" width="270" height="310" as="geometry"/>
                </mxCell>
                <mxCell id="35" value="公告案例" style="ellipse;whiteSpace=wrap;html=1;fontSize=16;" vertex="1" parent="30">
                    <mxGeometry x="70" y="50" width="140" height="70" as="geometry"/>
                </mxCell>
                <mxCell id="36" value="手機綁定案例" style="ellipse;whiteSpace=wrap;html=1;fontSize=16;" vertex="1" parent="30">
                    <mxGeometry x="70" y="137" width="140" height="70" as="geometry"/>
                </mxCell>
                <mxCell id="37" value="論壇案例" style="ellipse;whiteSpace=wrap;html=1;fontSize=16;" vertex="1" parent="30">
                    <mxGeometry x="70" y="225" width="140" height="70" as="geometry"/>
                </mxCell>
                <mxCell id="45" value="手機綁定住戶" style="shape=umlActor;verticalLabelPosition=bottom;verticalAlign=top;html=1;" vertex="1" parent="1">
                    <mxGeometry x="590" y="158" width="30" height="60" as="geometry"/>
                </mxCell>
                <mxCell id="46" style="edgeStyle=none;html=1;fontSize=16;endArrow=none;endFill=0;entryX=0;entryY=0.3333333333333333;entryDx=0;entryDy=0;entryPerimeter=0;" edge="1" parent="1" source="47" target="45">
                    <mxGeometry relative="1" as="geometry">
                        <mxPoint x="530" y="180" as="sourcePoint"/>
                        <Array as="points"/>
                    </mxGeometry>
                </mxCell>
                <mxCell id="49" value="&amp;lt;&amp;lt;actor&amp;gt;&amp;gt;&lt;br&gt;手機Qrcode掃描功能" style="rounded=0;whiteSpace=wrap;html=1;fontSize=16;" vertex="1" parent="1">
                    <mxGeometry x="440" y="742" width="120" height="60" as="geometry"/>
                </mxCell>
                <mxCell id="50" style="edgeStyle=none;html=1;entryX=0;entryY=0.5;entryDx=0;entryDy=0;fontSize=16;endArrow=none;endFill=0;" edge="1" parent="1" source="36" target="49">
                    <mxGeometry relative="1" as="geometry"/>
                </mxCell>
            </root>
        </mxGraphModel>
    </diagram>
</mxfile>